/* XPM */
static char *_30356e9449b45d7fca95ae7b05751d2A1zZ4xVBAQThodnm[] = {
/* columns rows colors chars-per-pixel */
"64 64 23 1 ",
"  c black",
". c #070707",
"X c #0E0E0E",
"o c #181818",
"O c #222222",
"+ c gray14",
"@ c #2C2C2C",
"# c #353535",
"$ c gray22",
"% c #3F3F3F",
"& c #414141",
"* c gray28",
"= c #494949",
"- c #4C4C4C",
"; c #505050",
": c #565656",
"> c gray36",
", c gray39",
"< c #676767",
"1 c gray42",
"2 c #6C6C6C",
"3 c #727272",
"4 c #777777",
/* pixels */
"4444444444444444444444444444444444444444444444444444444444444444",
"4444444444444444444444444444444444444444444444444444444444444444",
"4444444444444444444444444444444444444444444444444444444444444444",
"4444444444444444444444444444444444444444444444444444444444444444",
"4444444444444444444444444444444444444444444444444444444444444444",
"4444444444444444444444444444444444444444444444444444444444444444",
"4444444444444444444444444444444444444444444444444444444444444444",
"4444444444444444444444444444444444444444444444444444444444444444",
"4444444444444444444444444444444444444444444444444444444444444444",
"4444444444444444444444444444444444444444444444444444444444444444",
"4444444444444444444444444444444444444444444444444444444444444444",
"4444444444444444444444444444444444444444444444444444444444444444",
"4444444444444444444444444444444444444444444444444444444444444444",
"4444444444444444444444444444444444444444444444444444444444444444",
"4444444444444444444444444444444444444444444444444444444444444444",
"4444444444444444444444444444444444444444444444444444444444444444",
"4444444444444444444444444444444444444444444444444444444444444444",
"4444444444444444444444444444444444444444444444444444444444444444",
"4444444444444444444444444444444444444444444444444444444444444444",
"4444444444444444444444444444444444444444444444444444444444444444",
"4444444444444444444444444444444444444444444444444444444444444444",
"4444444444444444444444444444444444444444444444444444444444444444",
"4444444444444444444444444444444444444444444444444444444444444444",
"4444444444444444444444444444444444444444444444444444444444444444",
"4444444444444444444444444@   *444444444<  #444444444444444444444",
"4444444444444444444444444@    144444444<  #444444444444444444444",
"4444444444444444444444444@    %44444444<  #444444444444444444444",
"4444444444444444444444444@  .  <4444444<  #444444444444444444444",
"4444444444444444444444444@  -  #4444444<  #444444444444444444444",
"4444444444444444444444444@  1@  ,444444<  #444444444444444444444",
"4444444444444444444444444@  1,  @444444<  #444444444444444444444",
"4444444444444444444444444@  14$  >44444<  #444444444444444444444",
"4444444444444444444444444@  141  O44444<  #444444444444444444444",
"4444444444444444444444444@  144&  :4444<  #444444444444444444444",
"4444444444444444444444444@  1442  o3444<  #444444444444444444444",
"4444444444444444444444444@  1444=  -444<  #444444444444444444444",
"4444444444444444444444444@  14443X X244<  #444444444444444444444",
"4444444444444444444444444@  14444;  =44<  #444444444444444444444",
"4444444444444444444444444@  144443o  24<  #444444444444444444444",
"4444444444444444444444444@  144444:  &4<  #444444444444444444444",
"4444444444444444444444444@  1444444+  <<  #444444444444444444444",
"4444444444444444444444444@  1444444>  #<  #444444444444444444444",
"4444444444444444444444444@  14444444@  -  #444444444444444444444",
"4444444444444444444444444@  14444444,  .  #444444444444444444444",
"4444444444444444444444444@  144444444#    #444444444444444444444",
"4444444444444444444444444@  144444444<    #444444444444444444444",
"4444444444444444444444444@  1444444444&   #444444444444444444444",
"4444444444444444444444444444444444444444444444444444444444444444",
"4444444444444444444444444444444444444444444444444444444444444444",
"4444444444444444444444444444444444444444444444444444444444444444",
"4444444444444444444444444444444444444444444444444444444444444444",
"4444444444444444444444444444444444444444444444444444444444444444",
"4444444444444444444444444444444444444444444444444444444444444444",
"4444444444444444444444444444444444444444444444444444444444444444",
"4444444444444444444444444444444444444444444444444444444444444444",
"4444444444444444444444444444444444444444444444444444444444444444",
"4444444444444444444444444444444444444444444444444444444444444444",
"4444444444444444444444444444444444444444444444444444444444444444",
"4444444444444444444444444444444444444444444444444444444444444444",
"4444444444444444444444444444444444444444444444444444444444444444",
"4444444444444444444444444444444444444444444444444444444444444444",
"4444444444444444444444444444444444444444444444444444444444444444",
"4444444444444444444444444444444444444444444444444444444444444444",
"4444444444444444444444444444444444444444444444444444444444444444"
};
