/* XPM */
static char *fa639094086741b7da6e6b244810654bwNMOzbANp0idn2pT[] = {
/* columns rows colors chars-per-pixel */
"64 64 28 1 ",
"  c black",
". c #070707",
"X c #0E0E0E",
"o c #111111",
"O c gray8",
"+ c #1B1B1B",
"@ c gray11",
"# c #232323",
"$ c #252525",
"% c gray17",
"& c #2D2D2D",
"* c #323232",
"= c #353535",
"- c #393939",
"; c #3E3E3E",
": c #444444",
"> c #494949",
", c #4E4E4E",
"< c gray32",
"1 c gray33",
"2 c #585858",
"3 c gray37",
"4 c gray39",
"5 c #646464",
"6 c #6A6A6A",
"7 c #6C6C6C",
"8 c gray45",
"9 c #777777",
/* pixels */
"9999999999999999999999999999999999999999999999999999999999999999",
"9999999999999999999999999999999999999999999999999999999999999999",
"9999999999999999999999999999999999999999999999999999999999999999",
"9999999999999999999999999999999999999999999999999999999999999999",
"9999999999999999999999999999999999999999999999999999999999999999",
"9999999999999999999999999999999999999999999999999999999999999999",
"9999999999999999999999999999999999999999999999999999999999999999",
"9999999999999999999999999999999999999999999999999999999999999999",
"9999999999999999999999999999999999999999999999999999999999999999",
"9999999999999999999999999999999999999999999999999999999999999999",
"9999999999999999999999999999999999999999999999999999999999999999",
"9999999999999999999999999999999999999999999999999999999999999999",
"9999999999999999999999999999999999999999999999999999999999999999",
"9999999999999999999999999999999999999999999999999999999999999999",
"9999999999999999999999999999999999999999999999999999999999999999",
"9999999999999999999999999999999999999999999999999999999999999999",
"9999999999999999999999999999999999999999999999999999999999999999",
"9999999999999999999999999999999999999999999999999999999999999999",
"9999999999999999999999999999999999999999999999999999999999999999",
"9999999999999999999999999999999999999999999999999999999999999999",
"9999999999999999999999999999999999999999999999999999999999999999",
"9999999999999999999999999999999999999999999999999999999999999999",
"9999999999999999999999999999999999999999999999999999999999999999",
"9999999999999999999999999999999999999999999999999999999999999999",
"9999999999999999999999999999983:%OX#*;<4899999999999999999999999",
"99999999999999999999999999993+           89999999999999999999999",
"9999999999999999999999999992             89999999999999999999999",
"999999999999999999999999997.  @16898763>%89999999999999999999999",
"99999999999999999999999999,  $8999999999999999999999999999999999",
"99999999999999999999999999=  29999999999999999999999999999999999",
"99999999999999999999999999%  49999999999999999999999999999999999",
"99999999999999999999999999=  19999999999999999999999999999999999",
"99999999999999999999999999<  o5999999999999999999999999999999999",
"999999999999999999999999997o   &,4799999999999999999999999999999",
"9999999999999999999999999995O      O;179999999999999999999999999",
"99999999999999999999999999997>X        :899999999999999999999999",
"99999999999999999999999999999984,=o     $89999999999999999999999",
"9999999999999999999999999999999999972&   -9999999999999999999999",
"99999999999999999999999999999999999999,   6999999999999999999999",
"999999999999999999999999999999999999999@  2999999999999999999999",
"999999999999999999999999999999999999999=  1999999999999999999999",
"999999999999999999999999999999999999999@  2999999999999999999999",
"99999999999999999999999999999999999999<   6999999999999999999999",
"99999999999999999999999999;;<46789974-   *9999999999999999999999",
"99999999999999999999999999=             +69999999999999999999999",
"99999999999999999999999999=            -799999999999999999999999",
"99999999999999999999999999862>-&@.O$;<69999999999999999999999999",
"9999999999999999999999999999999999999999999999999999999999999999",
"9999999999999999999999999999999999999999999999999999999999999999",
"9999999999999999999999999999999999999999999999999999999999999999",
"9999999999999999999999999999999999999999999999999999999999999999",
"9999999999999999999999999999999999999999999999999999999999999999",
"9999999999999999999999999999999999999999999999999999999999999999",
"9999999999999999999999999999999999999999999999999999999999999999",
"9999999999999999999999999999999999999999999999999999999999999999",
"9999999999999999999999999999999999999999999999999999999999999999",
"9999999999999999999999999999999999999999999999999999999999999999",
"9999999999999999999999999999999999999999999999999999999999999999",
"9999999999999999999999999999999999999999999999999999999999999999",
"9999999999999999999999999999999999999999999999999999999999999999",
"9999999999999999999999999999999999999999999999999999999999999999",
"9999999999999999999999999999999999999999999999999999999999999999",
"9999999999999999999999999999999999999999999999999999999999999999",
"9999999999999999999999999999999999999999999999999999999999999999"
};
