/* XPM */
static char *_d5f65cc95fb4b58a21d5ee6829b501b7JwUOFutwHv4iwQM[] = {
/* columns rows colors chars-per-pixel */
"64 64 30 1 ",
"  c black",
". c #070707",
"X c gray4",
"o c #0E0E0E",
"O c #101010",
"+ c gray9",
"@ c gray10",
"# c #1E1E1E",
"$ c gray13",
"% c #272727",
"& c gray16",
"* c #2F2F2F",
"= c gray19",
"- c #373737",
"; c gray23",
": c gray24",
"> c gray26",
", c #464646",
"< c #494949",
"1 c #4E4E4E",
"2 c gray32",
"3 c #565656",
"4 c #5B5B5B",
"5 c #5F5F5F",
"6 c #626262",
"7 c gray40",
"8 c #686868",
"9 c #6F6F6F",
"0 c #727272",
"q c #777777",
/* pixels */
"qqqqqqqqqqqqqqqqqqqqqqqqqqqqqqqqqqqqqqqqqqqqqqqqqqqqqqqqqqqqqqqq",
"qqqqqqqqqqqqqqqqqqqqqqqqqqqqqqqqqqqqqqqqqqqqqqqqqqqqqqqqqqqqqqqq",
"qqqqqqqqqqqqqqqqqqqqqqqqqqqqqqqqqqqqqqqqqqqqqqqqqqqqqqqqqqqqqqqq",
"qqqqqqqqqqqqqqqqqqqqqqqqqqqqqqqqqqqqqqqqqqqqqqqqqqqqqqqqqqqqqqqq",
"qqqqqqqqqqqqqqqqqqqqqqqqqqqqqqqqqqqqqqqqqqqqqqqqqqqqqqqqqqqqqqqq",
"qqqqqqqqqqqqqqqqqqqqqqqqqqqqqqqqqqqqqqqqqqqqqqqqqqqqqqqqqqqqqqqq",
"qqqqqqqqqqqqqqqqqqqqqqqqqqqqqqqqqqqqqqqqqqqqqqqqqqqqqqqqqqqqqqqq",
"qqqqqqqqqqqqqqqqqqqqqqqqqqqqqqqqqqqqqqqqqqqqqqqqqqqqqqqqqqqqqqqq",
"qqqqqqqqqqqqqqqqqqqqqqqqqqqqqqqqqqqqqqqqqqqqqqqqqqqqqqqqqqqqqqqq",
"qqqqqqqqqqqqqqqqqqqqqqqqqqqqqqqqqqqqqqqqqqqqqqqqqqqqqqqqqqqqqqqq",
"qqqqqqqqqqqqqqqqqqqqqqqqqqqqqqqqqqqqqqqqqqqqqqqqqqqqqqqqqqqqqqqq",
"qqqqqqqqqqqqqqqqqqqqqqqqqqqqqqqqqqqqqqqqqqqqqqqqqqqqqqqqqqqqqqqq",
"qqqqqqqqqqqqqqqqqqqqqqqqqqqqqqqqqqqqqqqqqqqqqqqqqqqqqqqqqqqqqqqq",
"qqqqqqqqqqqqqqqqqqqqqqqqqqqqqqqqqqqqqqqqqqqqqqqqqqqqqqqqqqqqqqqq",
"qqqqqqqqqqqqqqqqqqqqqqqqqqqqqqqqqqqqqqqqqqqqqqqqqqqqqqqqqqqqqqqq",
"qqqqqqqqqqqqqqqqqqqqqqqqqqqqqqqqqqqqqqqqqqqqqqqqqqqqqqqqqqqqqqqq",
"qqqqqqqqqqqqqqqqqqqqqqqqqqqqqqqqqqqqqqqqqqqqqqqqqqqqqqqqqqqqqqqq",
"qqqqqqqqqqqqqqqqqqqqqqqqqqqqqqqqqqqqqqqqqqqqqqqqqqqqqqqqqqqqqqqq",
"qqqqqqqqqqqqqqqqqqqqqqqqqqqqqqqqqqqqqqqqqqqqqqqqqqqqqqqqqqqqqqqq",
"qqqqqqqqqqqqqqqqqqqqqqqqqqqqqqqqqqqqqqqqqqqqqqqqqqqqqqqqqqqqqqqq",
"qqqqqqqqqqqqqqqqqqqqqqqqqqqqqqqqqqqqqqqqqqqqqqqqqqqqqqqqqqqqqqqq",
"qqqqqqqqqqqqqqqqqqqqqqqqqqqqqqqqqqqqqqqqqqqqqqqqqqqqqqqqqqqqqqqq",
"qqqqqqqqqqqqqqqqqqqqqqqqqqqqqqqqqqqqqqqqqqqqqqqqqqqqqqqqqqqqqqqq",
"qqqqqqqqqqqqqqqqqqqqqqqqqqqqqqqqqqqqqqqqqqqqqqqqqqqqqqqqqqqqqqqq",
"qqqqqqqqqqqqqqqqqqq-  6qqqqqqqq0   >qqqqqqqqq:  4qqqqqqqqqqqqqqq",
"qqqqqqqqqqqqqqqqqqq2  <qqqqqqqq6   +qqqqqqqqqO  8qqqqqqqqqqqqqqq",
"qqqqqqqqqqqqqqqqqqq7  &qqqqqqqq1    8qqqqqqq8  @qqqqqqqqqqqqqqqq",
"qqqqqqqqqqqqqqqqqqqq.  0qqqqqqq= ;. 4qqqqqqq3  >qqqqqqqqqqqqqqqq",
"qqqqqqqqqqqqqqqqqqqq-  5qqqqqq0  3- :qqqqqqq:  4qqqqqqqqqqqqqqqq",
"qqqqqqqqqqqqqqqqqqqq2  <qqqqqq6  82 +qqqqqqqO  9qqqqqqqqqqqqqqqq",
"qqqqqqqqqqqqqqqqqqqq7  %qqqqqq1 +q7  8qqqqq8  #qqqqqqqqqqqqqqqqq",
"qqqqqqqqqqqqqqqqqqqqqX  9qqqqq* :q0. 3qqqqq3  ,qqqqqqqqqqqqqqqqq",
"qqqqqqqqqqqqqqqqqqqqq;  5qqqq0  3qq- :qqqqq:  4qqqqqqqqqqqqqqqqq",
"qqqqqqqqqqqqqqqqqqqqq2  <qqqq6  8qq2 OqqqqqO  9qqqqqqqqqqqqqqqqq",
"qqqqqqqqqqqqqqqqqqqqq7  %qqqq1 +qqq6  8qqq8  $qqqqqqqqqqqqqqqqqq",
"qqqqqqqqqqqqqqqqqqqqqqo  9qqq* :qqq0  3qqq3  ,qqqqqqqqqqqqqqqqqq",
"qqqqqqqqqqqqqqqqqqqqqq;  5qq0  3qqqq= :qqq:  5qqqqqqqqqqqqqqqqqq",
"qqqqqqqqqqqqqqqqqqqqqq3  ,qq6  8qqqq1 OqqqO  9qqqqqqqqqqqqqqqqqq",
"qqqqqqqqqqqqqqqqqqqqqq8  %qq1 Oqqqqq6  8q7  %qqqqqqqqqqqqqqqqqqq",
"qqqqqqqqqqqqqqqqqqqqqqqO  9q* :qqqqq0  3q3  <qqqqqqqqqqqqqqqqqqq",
"qqqqqqqqqqqqqqqqqqqqqqq:  50  3qqqqqq= :q;  5qqqqqqqqqqqqqqqqqqq",
"qqqqqqqqqqqqqqqqqqqqqqq3  ,6  8qqqqqq1 o0o  9qqqqqqqqqqqqqqqqqqq",
"qqqqqqqqqqqqqqqqqqqqqqq8  $1 Oqqqqqqq6  2  &qqqqqqqqqqqqqqqqqqqq",
"qqqqqqqqqqqqqqqqqqqqqqqq+  + :qqqqqqq0  +  <qqqqqqqqqqqqqqqqqqqq",
"qqqqqqqqqqqqqqqqqqqqqqqq:    3qqqqqqqq*    6qqqqqqqqqqqqqqqqqqqq",
"qqqqqqqqqqqqqqqqqqqqqqqq3    8qqqqqqqq1    0qqqqqqqqqqqqqqqqqqqq",
"qqqqqqqqqqqqqqqqqqqqqqqq8   Oqqqqqqqqq6   *qqqqqqqqqqqqqqqqqqqqq",
"qqqqqqqqqqqqqqqqqqqqqqqqqqqqqqqqqqqqqqqqqqqqqqqqqqqqqqqqqqqqqqqq",
"qqqqqqqqqqqqqqqqqqqqqqqqqqqqqqqqqqqqqqqqqqqqqqqqqqqqqqqqqqqqqqqq",
"qqqqqqqqqqqqqqqqqqqqqqqqqqqqqqqqqqqqqqqqqqqqqqqqqqqqqqqqqqqqqqqq",
"qqqqqqqqqqqqqqqqqqqqqqqqqqqqqqqqqqqqqqqqqqqqqqqqqqqqqqqqqqqqqqqq",
"qqqqqqqqqqqqqqqqqqqqqqqqqqqqqqqqqqqqqqqqqqqqqqqqqqqqqqqqqqqqqqqq",
"qqqqqqqqqqqqqqqqqqqqqqqqqqqqqqqqqqqqqqqqqqqqqqqqqqqqqqqqqqqqqqqq",
"qqqqqqqqqqqqqqqqqqqqqqqqqqqqqqqqqqqqqqqqqqqqqqqqqqqqqqqqqqqqqqqq",
"qqqqqqqqqqqqqqqqqqqqqqqqqqqqqqqqqqqqqqqqqqqqqqqqqqqqqqqqqqqqqqqq",
"qqqqqqqqqqqqqqqqqqqqqqqqqqqqqqqqqqqqqqqqqqqqqqqqqqqqqqqqqqqqqqqq",
"qqqqqqqqqqqqqqqqqqqqqqqqqqqqqqqqqqqqqqqqqqqqqqqqqqqqqqqqqqqqqqqq",
"qqqqqqqqqqqqqqqqqqqqqqqqqqqqqqqqqqqqqqqqqqqqqqqqqqqqqqqqqqqqqqqq",
"qqqqqqqqqqqqqqqqqqqqqqqqqqqqqqqqqqqqqqqqqqqqqqqqqqqqqqqqqqqqqqqq",
"qqqqqqqqqqqqqqqqqqqqqqqqqqqqqqqqqqqqqqqqqqqqqqqqqqqqqqqqqqqqqqqq",
"qqqqqqqqqqqqqqqqqqqqqqqqqqqqqqqqqqqqqqqqqqqqqqqqqqqqqqqqqqqqqqqq",
"qqqqqqqqqqqqqqqqqqqqqqqqqqqqqqqqqqqqqqqqqqqqqqqqqqqqqqqqqqqqqqqq",
"qqqqqqqqqqqqqqqqqqqqqqqqqqqqqqqqqqqqqqqqqqqqqqqqqqqqqqqqqqqqqqqq",
"qqqqqqqqqqqqqqqqqqqqqqqqqqqqqqqqqqqqqqqqqqqqqqqqqqqqqqqqqqqqqqqq"
};
